<svg width="40" height="40" viewBox="0 0 40 40" fill="none" xmlns="http://www.w3.org/2000/svg">
<path d="M26.6668 13.3333C29.319 13.3333 31.8625 14.3869 33.7379 16.2623C35.6133 18.1376 36.6668 20.6812 36.6668 23.3333V35H30.0002V23.3333C30.0002 22.4493 29.649 21.6014 29.0238 20.9763C28.3987 20.3512 27.5509 20 26.6668 20C25.7828 20 24.9349 20.3512 24.3098 20.9763C23.6847 21.6014 23.3335 22.4493 23.3335 23.3333V35H16.6668V23.3333C16.6668 20.6812 17.7204 18.1376 19.5958 16.2623C21.4711 14.3869 24.0147 13.3333 26.6668 13.3333Z" stroke="#1E1E1E" stroke-width="3.5" stroke-linecap="round" stroke-linejoin="round"/>
<path d="M10.0002 15H3.3335V35H10.0002V15Z" stroke="#1E1E1E" stroke-width="3.5" stroke-linecap="round" stroke-linejoin="round"/>
<path d="M6.66683 10C8.50778 10 10.0002 8.50763 10.0002 6.66668C10.0002 4.82573 8.50778 3.33334 6.66683 3.33334C4.82588 3.33334 3.3335 4.82573 3.3335 6.66668C3.3335 8.50763 4.82588 10 6.66683 10Z" stroke="#1E1E1E" stroke-width="3.5" stroke-linecap="round" stroke-linejoin="round"/>
</svg>
